<?xml version="1.0" encoding="iso-8859-1"?>
<!-- Generator: Adobe Illustrator 19.0.0, SVG Export Plug-In . SVG Version: 6.00 Build 0)  -->
<svg version="1.1" id="Capa_1" xmlns="http://www.w3.org/2000/svg" xmlns:xlink="http://www.w3.org/1999/xlink" x="0px" y="0px"
	 viewBox="0 0 512 512" style="enable-background:new 0 0 512 512;" xml:space="preserve">
<g>
	<g>
		<path d="M423.891,118.68l-8-47.992c-0.64-3.856-3.976-6.688-7.888-6.688h-17.752l-6.488-25.936c-0.824-3.288-3.632-5.704-7-6.024
			L211.627,16.312L197.659,2.344C196.163,0.84,194.123,0,192.003,0h-48c-3.672,0-6.872,2.496-7.76,6.064L121.755,64h-9.752
			c-3.448,0-6.496,2.2-7.592,5.472l-16,48c-0.816,2.44-0.4,5.128,1.104,7.208c1.504,2.08,3.92,3.32,6.488,3.32h0.496l4.16,64.784
			c-2.736,1.272-4.656,4-4.656,7.216v23.992c0,1.24,0.288,2.472,0.84,3.576l15.264,30.536l7.904,134.36
			c0.256,4.232,3.76,7.536,7.992,7.536h1.96l5.744,89.536c0.808,12.6,11.328,22.464,23.952,22.464h184.792
			c12.56,0,22.84-9.44,23.912-21.952l7.704-90.056c3.928-0.032,7.264-2.912,7.848-6.8l20.24-135.216l11.368-31.232
			c0.312-0.888,0.48-1.816,0.48-2.744v-24c0-3.768-2.656-6.784-6.16-7.632L415.347,128h0.656c2.352,0,4.584-1.032,6.104-2.832
			C423.627,123.368,424.275,121,423.891,118.68z M150.251,16h38.44l13.656,13.656c1.312,1.312,3.048,2.136,4.896,2.304
			l162.368,15.472L373.755,64H138.251L150.251,16z M352.419,488.688c-0.352,4.104-3.856,7.312-7.968,7.312H159.659
			c-4.208,0-7.712-3.288-7.984-7.488v-0.008L145.995,400h214.008L352.419,488.688z M400.003,222.584l-11.16,30.672
			c-0.176,0.496-0.312,1.024-0.392,1.544L369.115,384h-0.392H137.467h-1.92l-7.56-128.472c-0.064-1.088-0.344-2.144-0.832-3.112
			l-15.152-30.312V208h288V222.584z M112.531,128h286.752l-5.472,64H116.643L112.531,128z M107.099,112l10.672-32h10.232h256h17.224
			l5.336,32H107.099z"/>
	</g>
</g>
<g>
	<g>
		<path d="M256.003,224c-39.696,0-72,32.296-72,72c0,39.704,32.304,72,72,72s72-32.296,72-72
			C328.003,256.296,295.699,224,256.003,224z M256.003,352c-30.88,0-56-25.128-56-56s25.12-56,56-56s56,25.128,56,56
			S286.883,352,256.003,352z"/>
	</g>
</g>
<g>
	<g>
		<rect x="176.003" y="440" width="16" height="16"/>
	</g>
</g>
<g>
	<g>
		<rect x="248.003" y="440" width="16" height="16"/>
	</g>
</g>
<g>
	<g>
		<rect x="312.003" y="440" width="16" height="16"/>
	</g>
</g>
<g>
</g>
<g>
</g>
<g>
</g>
<g>
</g>
<g>
</g>
<g>
</g>
<g>
</g>
<g>
</g>
<g>
</g>
<g>
</g>
<g>
</g>
<g>
</g>
<g>
</g>
<g>
</g>
<g>
</g>
</svg>
